<svg xmlns="http://www.w3.org/2000/svg" xmlns:xlink="http://www.w3.org/1999/xlink" width="315.448" height="235.077" viewBox="0 0 315.448 235.077">
  <defs>
    <clipPath id="clip-path">
      <rect id="Rectángulo_917" data-name="Rectángulo 917" width="315.448" height="235.077" fill="none"/>
    </clipPath>
    <clipPath id="clip-path-5">
      <rect id="Rectángulo_895" data-name="Rectángulo 895" width="140.933" height="83.806" fill="none"/>
    </clipPath>
    <clipPath id="clip-path-6">
      <rect id="Rectángulo_896" data-name="Rectángulo 896" width="129.811" height="77.059" fill="none"/>
    </clipPath>
    <clipPath id="clip-path-7">
      <rect id="Rectángulo_897" data-name="Rectángulo 897" width="16.888" height="16.694" fill="none"/>
    </clipPath>
    <clipPath id="clip-path-8">
      <rect id="Rectángulo_898" data-name="Rectángulo 898" width="16.376" height="17.44" fill="none"/>
    </clipPath>
    <clipPath id="clip-path-9">
      <rect id="Rectángulo_899" data-name="Rectángulo 899" width="32.177" height="28.085" fill="none"/>
    </clipPath>
    <clipPath id="clip-path-10">
      <rect id="Rectángulo_905" data-name="Rectángulo 905" width="33.851" height="25.108" fill="none"/>
    </clipPath>
    <clipPath id="clip-path-11">
      <rect id="Rectángulo_900" data-name="Rectángulo 900" width="23.823" height="3.33" fill="none"/>
    </clipPath>
    <clipPath id="clip-path-12">
      <rect id="Rectángulo_901" data-name="Rectángulo 901" width="27.45" height="3.329" fill="none"/>
    </clipPath>
    <clipPath id="clip-path-13">
      <rect id="Rectángulo_902" data-name="Rectángulo 902" width="15.072" height="3.329" fill="none"/>
    </clipPath>
    <clipPath id="clip-path-15">
      <rect id="Rectángulo_904" data-name="Rectángulo 904" width="8.755" height="3.329" fill="none"/>
    </clipPath>
    <clipPath id="clip-path-17">
      <rect id="Rectángulo_907" data-name="Rectángulo 907" width="13.786" height="18.859" fill="none"/>
    </clipPath>
    <clipPath id="clip-path-18">
      <rect id="Rectángulo_908" data-name="Rectángulo 908" width="5.242" height="10.58" fill="none"/>
    </clipPath>
    <clipPath id="clip-path-19">
      <rect id="Rectángulo_909" data-name="Rectángulo 909" width="28.241" height="41.502" fill="none"/>
    </clipPath>
    <clipPath id="clip-path-20">
      <rect id="Rectángulo_910" data-name="Rectángulo 910" width="5.856" height="11.798" fill="none"/>
    </clipPath>
    <clipPath id="clip-path-21">
      <rect id="Rectángulo_911" data-name="Rectángulo 911" width="4.874" height="5.532" fill="none"/>
    </clipPath>
    <clipPath id="clip-path-22">
      <rect id="Rectángulo_912" data-name="Rectángulo 912" width="6.878" height="6.134" fill="none"/>
    </clipPath>
    <clipPath id="clip-path-23">
      <rect id="Rectángulo_913" data-name="Rectángulo 913" width="6.534" height="35.586" fill="none"/>
    </clipPath>
    <clipPath id="clip-path-25">
      <rect id="Rectángulo_915" data-name="Rectángulo 915" width="17.198" height="19.493" fill="none"/>
    </clipPath>
  </defs>
  <g id="Grupo_1002" data-name="Grupo 1002" opacity="0.31">
    <g id="Grupo_1001" data-name="Grupo 1001" clip-path="url(#clip-path)">
      <rect id="Rectángulo_883" data-name="Rectángulo 883" width="315.448" height="0.158" transform="translate(0 206.584)" fill="#ebebeb"/>
      <rect id="Rectángulo_884" data-name="Rectángulo 884" width="49.152" height="0.157" transform="translate(33.096 212.593)" fill="#ebebeb"/>
      <rect id="Rectángulo_885" data-name="Rectángulo 885" width="23.912" height="0.157" transform="translate(259.929 217.391)" fill="#ebebeb"/>
      <rect id="Rectángulo_886" data-name="Rectángulo 886" width="12.108" height="0.158" transform="translate(82.879 218.451)" fill="#ebebeb"/>
      <rect id="Rectángulo_887" data-name="Rectángulo 887" width="27.25" height="0.158" transform="translate(127.546 210.881)" fill="#ebebeb"/>
      <rect id="Rectángulo_888" data-name="Rectángulo 888" width="3.995" height="0.158" transform="translate(160.414 210.881)" fill="#ebebeb"/>
      <rect id="Rectángulo_889" data-name="Rectángulo 889" width="27.269" height="0.158" transform="translate(206.724 214.727)" fill="#ebebeb"/>
      <g id="Grupo_934" data-name="Grupo 934">
        <g id="Grupo_933" data-name="Grupo 933" clip-path="url(#clip-path)">
          <path id="Trazado_718" data-name="Trazado 718" d="M163.633,178.447H41.808a3.605,3.605,0,0,1-3.6-3.6V3.6a3.606,3.606,0,0,1,3.6-3.6H163.633a3.605,3.605,0,0,1,3.6,3.6V174.846a3.605,3.605,0,0,1-3.6,3.6M41.808.158A3.447,3.447,0,0,0,38.365,3.6V174.846a3.447,3.447,0,0,0,3.443,3.443H163.633a3.447,3.447,0,0,0,3.443-3.443V3.6A3.447,3.447,0,0,0,163.633.158Z" transform="translate(-14.102)" fill="#ebebeb"/>
          <path id="Trazado_719" data-name="Trazado 719" d="M379.931,178.447H258.106a3.6,3.6,0,0,1-3.6-3.6V3.6a3.605,3.605,0,0,1,3.6-3.6H379.931a3.606,3.606,0,0,1,3.6,3.6V174.846a3.605,3.605,0,0,1-3.6,3.6M258.106.158A3.447,3.447,0,0,0,254.663,3.6V174.846a3.447,3.447,0,0,0,3.443,3.443H379.931a3.447,3.447,0,0,0,3.443-3.443V3.6A3.447,3.447,0,0,0,379.931.158Z" transform="translate(-93.939)" fill="#ebebeb"/>
          <path id="Trazado_720" data-name="Trazado 720" d="M108.564,270.3h-31a2.784,2.784,0,0,1-2.754-2.381l-7.759-53.041a2.784,2.784,0,0,1,2.754-3.187h31a2.784,2.784,0,0,1,2.754,2.381l7.759,53.041a2.784,2.784,0,0,1-2.754,3.187" transform="translate(-24.738 -78.135)" fill="#f0f0f0"/>
          <path id="Trazado_721" data-name="Trazado 721" d="M74.86,270.3H60.244a2.784,2.784,0,0,1-2.754-2.381l-7.759-53.041a2.784,2.784,0,0,1,2.754-3.187H67.1a2.784,2.784,0,0,1,2.754,2.381l7.759,53.041A2.784,2.784,0,0,1,74.86,270.3" transform="translate(-18.345 -78.135)" fill="#fafafa"/>
          <path id="Trazado_722" data-name="Trazado 722" d="M288.046,190.381H137.385a7.485,7.485,0,0,0-7.522,6.409l-3.792,40.952c-.327,3.539,2.508,6.409,6.335,6.409H283.068a7.485,7.485,0,0,0,7.522-6.409l3.792-40.952c.327-3.539-2.508-6.409-6.335-6.409" transform="translate(-46.524 -70.271)" fill="#e0e0e0"/>
          <path id="Trazado_723" data-name="Trazado 723" d="M271.836,190.381H121.175a7.485,7.485,0,0,0-7.522,6.409l-3.792,40.952c-.327,3.539,2.508,6.409,6.335,6.409H266.858a7.485,7.485,0,0,0,7.522-6.409l3.792-40.952c.327-3.539-2.508-6.409-6.335-6.409" transform="translate(-40.541 -70.271)" fill="#e6e6e6"/>
          <path id="Trazado_724" data-name="Trazado 724" d="M97.661,286.205V271.625a4.539,4.539,0,0,1,4.539-4.539h56.745a4.539,4.539,0,0,1,4.539,4.539v14.581a4.539,4.539,0,0,1-4.539,4.539H102.2a4.539,4.539,0,0,1-4.539-4.539" transform="translate(-36.047 -98.583)" fill="#ebebeb"/>
          <path id="Trazado_725" data-name="Trazado 725" d="M227.717,286.59V271.239a4.154,4.154,0,0,1,4.154-4.154H298.1a4.154,4.154,0,0,1,4.154,4.154V286.59a4.154,4.154,0,0,1-4.154,4.154H231.871a4.154,4.154,0,0,1-4.154-4.154" transform="translate(-84.051 -98.582)" fill="#e0e0e0"/>
          <path id="Trazado_726" data-name="Trazado 726" d="M201.994,286.59V271.239a4.154,4.154,0,0,1,4.154-4.154h66.227a4.154,4.154,0,0,1,4.154,4.154V286.59a4.154,4.154,0,0,1-4.154,4.154H206.148a4.154,4.154,0,0,1-4.154-4.154" transform="translate(-74.557 -98.582)" fill="#ebebeb"/>
          <path id="Trazado_727" data-name="Trazado 727" d="M367.24,270.3H344.181a2.423,2.423,0,0,1-2.348-3.187l14.523-53.041a3.268,3.268,0,0,1,3.058-2.381h23.06a2.423,2.423,0,0,1,2.348,3.187L370.3,267.915a3.267,3.267,0,0,1-3.058,2.381" transform="translate(-126.134 -78.135)" fill="#f0f0f0"/>
          <path id="Trazado_728" data-name="Trazado 728" d="M341.473,270.3H326.858a2.423,2.423,0,0,1-2.348-3.187l14.523-53.041a3.268,3.268,0,0,1,3.059-2.381h14.615a2.423,2.423,0,0,1,2.348,3.187l-14.523,53.041a3.267,3.267,0,0,1-3.058,2.381" transform="translate(-119.74 -78.135)" fill="#fafafa"/>
          <path id="Trazado_729" data-name="Trazado 729" d="M327.669,319.008h-2.218l-5.315-14.423h5.494Z" transform="translate(-118.164 -112.424)" fill="#e0e0e0"/>
          <path id="Trazado_730" data-name="Trazado 730" d="M372.288,319.008H370.07l-5.315-14.423h5.494Z" transform="translate(-134.633 -112.424)" fill="#e0e0e0"/>
          <path id="Trazado_731" data-name="Trazado 731" d="M123.072,319.008h2.218l5.315-14.423h-5.494Z" transform="translate(-45.426 -112.424)" fill="#e0e0e0"/>
          <path id="Trazado_732" data-name="Trazado 732" d="M78.453,319.008h2.218l5.315-14.423H80.492Z" transform="translate(-28.957 -112.424)" fill="#e0e0e0"/>
          <rect id="Rectángulo_890" data-name="Rectángulo 890" width="168.236" height="60.005" transform="translate(73.606 26.948)" fill="#e0e0e0"/>
          <rect id="Rectángulo_891" data-name="Rectángulo 891" width="168.236" height="60.005" transform="translate(72.063 26.948)" fill="#f0f0f0"/>
          <rect id="Rectángulo_892" data-name="Rectángulo 892" width="158.141" height="49.911" transform="translate(77.111 31.995)" fill="#fafafa"/>
          <path id="Trazado_733" data-name="Trazado 733" d="M253.766,81.514A14.966,14.966,0,1,1,238.8,66.548a14.966,14.966,0,0,1,14.966,14.966" transform="translate(-82.618 -24.563)" fill="#f0f0f0"/>
          <path id="Trazado_734" data-name="Trazado 734" d="M162.915,100.625,173.4,50.714h23.133l-10.481,49.911Z" transform="translate(-60.133 -18.719)" fill="#fff"/>
          <path id="Trazado_735" data-name="Trazado 735" d="M215.053,100.625l10.481-49.911H237.1l-10.482,49.911Z" transform="translate(-79.377 -18.719)" fill="#fff"/>
          <path id="Trazado_736" data-name="Trazado 736" d="M326.994,100.625l10.481-49.911h11.567l-10.481,49.911Z" transform="translate(-120.695 -18.719)" fill="#fff"/>
          <path id="Trazado_737" data-name="Trazado 737" d="M438.755,196.809c-3.925,17.011,5.677,34.581,1.751,51.592l-3.887-.161-3.887-.162c6.517-16.9-.494-34.366,6.023-51.269" transform="translate(-159.723 -72.643)" fill="#f0f0f0"/>
          <path id="Trazado_738" data-name="Trazado 738" d="M423.689,208.5c3.216,16.263-7.106,32.526-3.891,48.789h7.781c-5.81-16.263,1.919-32.526-3.891-48.789" transform="translate(-154.717 -76.959)" fill="#f0f0f0"/>
          <path id="Trazado_739" data-name="Trazado 739" d="M432.344,187.069c-5.146,17.344,4.419,36.061-.726,53.4l-4.228-.395-4.227-.395c7.964-17.081,1.217-35.534,9.18-52.615" transform="translate(-156.192 -69.048)" fill="#e6e6e6"/>
          <path id="Trazado_740" data-name="Trazado 740" d="M446.14,226.655c1.66,9.378-7.595,16.753-5.935,26.131l3.136.576,3.136.575c-3.751-9.762,3.413-17.52-.338-27.282" transform="translate(-162.408 -83.659)" fill="#e6e6e6"/>
          <path id="Trazado_741" data-name="Trazado 741" d="M437.715,267.086H412.3a43.28,43.28,0,0,0,0,38.081h25.417a43.28,43.28,0,0,0,0-38.081" transform="translate(-150.552 -98.583)" fill="#e0e0e0"/>
        </g>
      </g>
      <g id="Grupo_936" data-name="Grupo 936">
        <g id="Grupo_935" data-name="Grupo 935" clip-path="url(#clip-path)">
          <path id="Trazado_742" data-name="Trazado 742" d="M300.758,357.107c0,3.946-54.766,7.144-122.324,7.144s-122.324-3.2-122.324-7.144,54.766-7.144,122.324-7.144,122.324,3.2,122.324,7.144" transform="translate(-20.711 -129.173)" fill="#f5f5f5"/>
        </g>
      </g>
      <g id="Grupo_971" data-name="Grupo 971">
        <g id="Grupo_970" data-name="Grupo 970" clip-path="url(#clip-path)">
          <path id="Trazado_743" data-name="Trazado 743" d="M302.554,167.614H166.219a2.51,2.51,0,0,1-2.525-2.672l4.591-83.584a2.866,2.866,0,0,1,2.819-2.672H307.439a2.51,2.51,0,0,1,2.525,2.672l-4.592,83.584a2.865,2.865,0,0,1-2.819,2.672" transform="translate(-60.419 -29.043)" fill="#263238"/>
          <path id="Trazado_744" data-name="Trazado 744" d="M280.759,90.6H267.58a7.5,7.5,0,0,1-7.552-7.978l.134-2.438a8.3,8.3,0,0,1,8.166-7.73H281.5a7.506,7.506,0,0,1,7.559,7.986l-.133,2.43a8.3,8.3,0,0,1-8.166,7.73" transform="translate(-95.973 -26.743)" fill="#263238"/>
          <path id="Trazado_745" data-name="Trazado 745" d="M302.639,253.131h-4.223L286.792,75.4h4.223Z" transform="translate(-105.856 -27.832)" fill="#263238"/>
          <path id="Trazado_746" data-name="Trazado 746" d="M261.674,253.131H265.9L277.521,75.4H273.3Z" transform="translate(-96.585 -27.832)" fill="#263238"/>
          <path id="Trazado_747" data-name="Trazado 747" d="M301.4,167.614H165.069a2.51,2.51,0,0,1-2.525-2.672l4.591-83.584a2.866,2.866,0,0,1,2.819-2.672H306.289a2.51,2.51,0,0,1,2.525,2.672l-4.591,83.584a2.866,2.866,0,0,1-2.819,2.672" transform="translate(-59.994 -29.043)" fill="#407bff"/>
          <g id="Grupo_939" data-name="Grupo 939" transform="translate(105.218 52.203)" opacity="0.4">
            <g id="Grupo_938" data-name="Grupo 938">
              <g id="Grupo_937" data-name="Grupo 937" clip-path="url(#clip-path-5)">
                <path id="Trazado_748" data-name="Trazado 748" d="M168.8,166.552a2,2,0,0,1-2.017-2.134l4.369-79.538a2.286,2.286,0,0,1,2.252-2.134H305.689a2,2,0,0,1,2.016,2.134l-4.369,79.538a2.284,2.284,0,0,1-2.251,2.134Z" transform="translate(-166.776 -82.745)" fill="#263238"/>
              </g>
            </g>
          </g>
          <g id="Grupo_942" data-name="Grupo 942" transform="translate(110.779 55.577)" opacity="0.1">
            <g id="Grupo_941" data-name="Grupo 941">
              <g id="Grupo_940" data-name="Grupo 940" clip-path="url(#clip-path-6)">
                <path id="Trazado_749" data-name="Trazado 749" d="M305.159,126.366h-39.82a1.7,1.7,0,0,1-1.714-1.813l1.989-36.2a.24.24,0,0,0-.242-.256.273.273,0,0,0-.27.256l-1.989,36.2a1.938,1.938,0,0,1-1.912,1.813H219.82a1.7,1.7,0,0,1-1.714-1.813l1.989-36.2a.239.239,0,0,0-.242-.256.274.274,0,0,0-.271.256l-1.989,36.2a1.939,1.939,0,0,1-1.912,1.813h-39.82a.274.274,0,0,0-.271.256.24.24,0,0,0,.242.256h39.82a1.7,1.7,0,0,1,1.714,1.813l-1.989,36.2a.24.24,0,0,0,.242.256.274.274,0,0,0,.27-.256l1.989-36.2a1.938,1.938,0,0,1,1.912-1.813h41.381a1.7,1.7,0,0,1,1.714,1.813L260.9,164.9a.239.239,0,0,0,.242.256.274.274,0,0,0,.271-.256l1.989-36.2a1.938,1.938,0,0,1,1.912-1.813h39.82a.274.274,0,0,0,.271-.256.24.24,0,0,0-.242-.256" transform="translate(-175.59 -88.092)" fill="#fff"/>
              </g>
            </g>
          </g>
          <g id="Grupo_945" data-name="Grupo 945" transform="translate(158.535 62.139)" opacity="0.4">
            <g id="Grupo_944" data-name="Grupo 944">
              <g id="Grupo_943" data-name="Grupo 943" clip-path="url(#clip-path-7)">
                <path id="Trazado_750" data-name="Trazado 750" d="M268.174,98.493H252.179l-.894,16.267,15.971.427Z" transform="translate(-251.285 -98.493)" fill="#263238"/>
              </g>
            </g>
          </g>
          <path id="Trazado_751" data-name="Trazado 751" d="M265.913,113.676l-16.054-.782a140.657,140.657,0,0,0,1.67-16.6l16.148.782a140.833,140.833,0,0,1-1.764,16.6" transform="translate(-92.224 -35.543)" fill="#fff"/>
          <g id="Grupo_948" data-name="Grupo 948" transform="translate(178.69 73.006)" opacity="0.4">
            <g id="Grupo_947" data-name="Grupo 947">
              <g id="Grupo_946" data-name="Grupo 946" clip-path="url(#clip-path-8)">
                <path id="Trazado_752" data-name="Trazado 752" d="M299.247,115.718l-16.015,1.221.351,16.22,16.024-.8Z" transform="translate(-283.232 -115.718)" fill="#263238"/>
              </g>
            </g>
          </g>
          <path id="Trazado_753" data-name="Trazado 753" d="M298.367,131.379l-16.134.449a138.909,138.909,0,0,0,.4-16.608l16.228-.457a138.884,138.884,0,0,1-.495,16.617" transform="translate(-104.174 -42.359)" fill="#407bff"/>
          <g id="Grupo_951" data-name="Grupo 951" transform="translate(115.754 101.462)" opacity="0.4">
            <g id="Grupo_950" data-name="Grupo 950">
              <g id="Grupo_949" data-name="Grupo 949" clip-path="url(#clip-path-9)">
                <path id="Trazado_754" data-name="Trazado 754" d="M215.652,161.951l-29.527-1.128-2.65,26.267,29.458,1.818Z" transform="translate(-183.475 -160.823)" fill="#263238"/>
              </g>
            </g>
          </g>
          <path id="Trazado_755" data-name="Trazado 755" d="M210.533,186.4,180.945,184a200.5,200.5,0,0,0,4.1-26.75l29.761,2.4a200.934,200.934,0,0,1-4.276,26.744" transform="translate(-66.788 -58.042)" fill="#fff"/>
          <g id="Grupo_969" data-name="Grupo 969" transform="translate(114.768 62.485)" opacity="0.3" style="mix-blend-mode: multiply;isolation: isolate">
            <g id="Grupo_968" data-name="Grupo 968">
              <g id="Grupo_967" data-name="Grupo 967" clip-path="url(#clip-path-10)">
                <path id="Trazado_756" data-name="Trazado 756" d="M185.385,102.371h0a1.564,1.564,0,0,1-1.573-1.664,1.786,1.786,0,0,1,1.756-1.665,1.563,1.563,0,0,1,1.573,1.665,1.785,1.785,0,0,1-1.756,1.664" transform="translate(-182.613 -99.041)" fill="#263238"/>
                <g id="Grupo_954" data-name="Grupo 954" transform="translate(6.8)" opacity="0.8">
                  <g id="Grupo_953" data-name="Grupo 953">
                    <g id="Grupo_952" data-name="Grupo 952" clip-path="url(#clip-path-11)">
                      <path id="Trazado_757" data-name="Trazado 757" d="M214.755,102.371H194.267a1.563,1.563,0,0,1-1.573-1.664,1.785,1.785,0,0,1,1.756-1.665h20.488a1.564,1.564,0,0,1,1.573,1.665,1.786,1.786,0,0,1-1.756,1.664" transform="translate(-192.691 -99.041)" fill="#263238"/>
                    </g>
                  </g>
                </g>
                <path id="Trazado_758" data-name="Trazado 758" d="M184.753,113.877h0a1.564,1.564,0,0,1-1.573-1.664,1.786,1.786,0,0,1,1.756-1.665,1.564,1.564,0,0,1,1.573,1.665,1.786,1.786,0,0,1-1.756,1.664" transform="translate(-182.38 -103.288)" fill="#263238"/>
                <g id="Grupo_957" data-name="Grupo 957" transform="translate(6.401 7.26)" opacity="0.8">
                  <g id="Grupo_956" data-name="Grupo 956">
                    <g id="Grupo_955" data-name="Grupo 955" clip-path="url(#clip-path-12)">
                      <path id="Trazado_759" data-name="Trazado 759" d="M217.751,113.877H193.635a1.564,1.564,0,0,1-1.573-1.664,1.786,1.786,0,0,1,1.756-1.665h24.116a1.563,1.563,0,0,1,1.573,1.665,1.785,1.785,0,0,1-1.756,1.664" transform="translate(-192.059 -110.548)" fill="#263238"/>
                    </g>
                  </g>
                </g>
                <path id="Trazado_760" data-name="Trazado 760" d="M184.121,125.384h0a1.564,1.564,0,0,1-1.573-1.665,1.786,1.786,0,0,1,1.756-1.664,1.564,1.564,0,0,1,1.573,1.664,1.786,1.786,0,0,1-1.756,1.665" transform="translate(-182.146 -107.536)" fill="#263238"/>
                <g id="Grupo_960" data-name="Grupo 960" transform="translate(6.002 14.519)" opacity="0.8">
                  <g id="Grupo_959" data-name="Grupo 959">
                    <g id="Grupo_958" data-name="Grupo 958" clip-path="url(#clip-path-13)">
                      <path id="Trazado_761" data-name="Trazado 761" d="M204.741,125.384H193a1.564,1.564,0,0,1-1.573-1.665,1.786,1.786,0,0,1,1.756-1.664h11.738a1.563,1.563,0,0,1,1.573,1.664,1.785,1.785,0,0,1-1.756,1.665" transform="translate(-191.427 -122.055)" fill="#263238"/>
                    </g>
                  </g>
                </g>
                <g id="Grupo_963" data-name="Grupo 963" transform="translate(16.872 21.778)" opacity="0.8">
                  <g id="Grupo_962" data-name="Grupo 962">
                    <g id="Grupo_961" data-name="Grupo 961" clip-path="url(#clip-path-13)">
                      <path id="Trazado_762" data-name="Trazado 762" d="M221.969,136.89H210.231a1.564,1.564,0,0,1-1.573-1.665,1.786,1.786,0,0,1,1.756-1.664h11.738a1.563,1.563,0,0,1,1.573,1.664,1.785,1.785,0,0,1-1.756,1.665" transform="translate(-208.656 -133.561)" fill="#263238"/>
                    </g>
                  </g>
                </g>
                <path id="Trazado_763" data-name="Trazado 763" d="M183.489,136.89h0a1.564,1.564,0,0,1-1.573-1.665,1.786,1.786,0,0,1,1.756-1.664,1.563,1.563,0,0,1,1.573,1.664,1.785,1.785,0,0,1-1.756,1.665" transform="translate(-181.913 -111.783)" fill="#263238"/>
                <g id="Grupo_966" data-name="Grupo 966" transform="translate(5.604 21.778)" opacity="0.8">
                  <g id="Grupo_965" data-name="Grupo 965">
                    <g id="Grupo_964" data-name="Grupo 964" clip-path="url(#clip-path-15)">
                      <path id="Trazado_764" data-name="Trazado 764" d="M197.792,136.89h-5.421a1.564,1.564,0,0,1-1.573-1.665,1.786,1.786,0,0,1,1.756-1.664h5.421a1.564,1.564,0,0,1,1.573,1.664,1.786,1.786,0,0,1-1.756,1.665" transform="translate(-190.795 -133.561)" fill="#263238"/>
                    </g>
                  </g>
                </g>
              </g>
            </g>
          </g>
          <path id="Trazado_765" data-name="Trazado 765" d="M259.858,173.079h-7.945l-1.091,19.878h7.944Z" transform="translate(-92.58 -63.884)" fill="#407bff"/>
          <path id="Trazado_766" data-name="Trazado 766" d="M279.09,179.574h-7.945l-.867,15.781h7.945Z" transform="translate(-99.761 -66.281)" fill="#407bff"/>
          <path id="Trazado_767" data-name="Trazado 767" d="M299.129,162.8h-7.945l-1.448,26.366h7.944Z" transform="translate(-106.943 -60.088)" fill="#407bff"/>
          <path id="Trazado_768" data-name="Trazado 768" d="M250.973,181.648q-1.18,0-2.382-.062a13.487,13.487,0,0,1-4.806-.975.512.512,0,0,1,.42-.934,12.537,12.537,0,0,0,4.438.886c9.533.491,17.88-1.992,26.281-7.812a29.252,29.252,0,0,0,6.831-6.623.512.512,0,1,1,.844.581,29.849,29.849,0,0,1-7.091,6.883c-7.891,5.466-15.745,8.055-24.534,8.055" transform="translate(-89.87 -61.237)" fill="#fff"/>
          <path id="Trazado_769" data-name="Trazado 769" d="M303.214,168.055a.513.513,0,0,1-.473-.708,9.011,9.011,0,0,0,.441-5.518,34.556,34.556,0,0,1-6.347,3.37.512.512,0,1,1-.383-.95,33.575,33.575,0,0,0,6.729-3.662.512.512,0,0,1,.78.256,9.973,9.973,0,0,1-.273,6.9.512.512,0,0,1-.474.317" transform="translate(-109.303 -59.239)" fill="#fff"/>
          <path id="Trazado_770" data-name="Trazado 770" d="M355.335,124.611H325.782a1.768,1.768,0,0,1-1.78-1.884l1.372-24.984a1.987,1.987,0,0,1,1.958-1.855h29.554a1.768,1.768,0,0,1,1.78,1.884l-1.372,24.983a1.987,1.987,0,0,1-1.958,1.856m-28-28.211a1.468,1.468,0,0,0-1.447,1.372l-1.372,24.983a1.255,1.255,0,0,0,1.269,1.344h29.554a1.468,1.468,0,0,0,1.447-1.372l1.372-24.984a1.255,1.255,0,0,0-1.269-1.343Z" transform="translate(-119.589 -35.393)" fill="#407bff"/>
          <path id="Trazado_771" data-name="Trazado 771" d="M358.775,106.951H325.994a.256.256,0,0,1,0-.512h32.781a.256.256,0,1,1,0,.512" transform="translate(-120.231 -39.287)" fill="#407bff"/>
          <path id="Trazado_772" data-name="Trazado 772" d="M336.386,128.505h-.015a.256.256,0,0,1-.242-.269l1.184-21.555a.253.253,0,0,1,.27-.242.256.256,0,0,1,.242.27l-1.184,21.555a.256.256,0,0,1-.256.242" transform="translate(-124.067 -39.287)" fill="#407bff"/>
          <path id="Trazado_773" data-name="Trazado 773" d="M361.59,111.01h-17.8a.256.256,0,1,1,0-.512h17.8a.256.256,0,0,1,0,.512" transform="translate(-126.801 -40.785)" fill="#407bff"/>
          <path id="Trazado_774" data-name="Trazado 774" d="M358.808,115.991H343.519a.256.256,0,1,1,0-.512h15.288a.256.256,0,0,1,0,.512" transform="translate(-126.7 -42.624)" fill="#407bff"/>
          <path id="Trazado_775" data-name="Trazado 775" d="M352.136,121.132h-8.9a.256.256,0,1,1,0-.512h8.9a.256.256,0,0,1,0,.512" transform="translate(-126.596 -44.521)" fill="#407bff"/>
          <path id="Trazado_776" data-name="Trazado 776" d="M353.549,131.165H342.686a.256.256,0,1,1,0-.512h10.863a.256.256,0,1,1,0,.512" transform="translate(-126.393 -48.225)" fill="#407bff"/>
          <path id="Trazado_777" data-name="Trazado 777" d="M351.3,136.306h-8.9a.256.256,0,0,1,0-.512h8.9a.256.256,0,0,1,0,.512" transform="translate(-126.288 -50.122)" fill="#407bff"/>
          <path id="Trazado_778" data-name="Trazado 778" d="M363.1,136.306h-2.852a.256.256,0,0,1,0-.512H363.1a.256.256,0,1,1,0,.512" transform="translate(-132.874 -50.122)" fill="#407bff"/>
          <path id="Trazado_779" data-name="Trazado 779" d="M359.628,126.113H342.963a.256.256,0,0,1,0-.512h16.664a.256.256,0,1,1,0,.512" transform="translate(-126.495 -46.36)" fill="#407bff"/>
          <path id="Trazado_780" data-name="Trazado 780" d="M338.145,184.662c-3.861,0-7.024-1.141-8.99-3.264-2.1-2.266-2.968-5.828-2.387-9.776a11.807,11.807,0,0,1,7.539-9.923,18.061,18.061,0,0,1,15.284.206,6.991,6.991,0,0,1,3.868,3.917.512.512,0,0,1-.977.308,6.034,6.034,0,0,0-3.351-3.309,17.028,17.028,0,0,0-14.408-.185,10.795,10.795,0,0,0-6.942,9.135c-.534,3.639.24,6.894,2.126,8.931,2.621,2.831,6.961,3.034,9.315,2.9a15.829,15.829,0,0,0,10.6-4.3c2.878-2.963,3.684-7.394,1.876-10.308a3.223,3.223,0,0,0-2.211-1.638.512.512,0,0,1,.1-1.02,4.1,4.1,0,0,1,2.979,2.118c2.048,3.3,1.183,8.272-2.012,11.561a16.841,16.841,0,0,1-11.279,4.613q-.575.031-1.134.032" transform="translate(-120.547 -59.096)" fill="#fff"/>
        </g>
      </g>
      <g id="Grupo_1000" data-name="Grupo 1000">
        <g id="Grupo_999" data-name="Grupo 999" clip-path="url(#clip-path)">
          <path id="Trazado_781" data-name="Trazado 781" d="M128.7,112.22l-1.82,3.171-1.783,3.238c-1.174,2.163-2.3,4.344-3.32,6.537-.51,1.1-.995,2.192-1.438,3.292l-.082.2a.267.267,0,0,1-.027.047.432.432,0,0,0-.054.088,1.077,1.077,0,0,0-.086.181,1.248,1.248,0,0,0,.076.707,7,7,0,0,0,1.519,2.3,27.58,27.58,0,0,0,2.464,2.335l-1.478,3.15a15.537,15.537,0,0,1-2.039-.72,15.741,15.741,0,0,1-1.926-.988,10.922,10.922,0,0,1-3.556-3.3,7.335,7.335,0,0,1-1.112-2.878A6.573,6.573,0,0,1,114,127.87a5.865,5.865,0,0,1,.144-.841l.1-.411.078-.249c.406-1.29.826-2.567,1.318-3.8.959-2.477,2.039-4.869,3.218-7.2.589-1.166,1.2-2.317,1.842-3.451s1.276-2.246,2.016-3.4Z" transform="translate(-42.064 -40.057)" fill="#ffc3bd"/>
          <path id="Trazado_782" data-name="Trazado 782" d="M127.2,148.34l3.315-.862.19,5.352a5.4,5.4,0,0,1-4.181-1.2Z" transform="translate(-46.702 -54.435)" fill="#ffc3bd"/>
          <path id="Trazado_783" data-name="Trazado 783" d="M137.551,146.048l-.748,4.7-3.76,1.555-.191-5.352Z" transform="translate(-49.037 -53.907)" fill="#ffc3bd"/>
          <path id="Trazado_784" data-name="Trazado 784" d="M162.021,73.962c.074.367.329.624.568.575s.373-.385.3-.751-.329-.624-.568-.575-.374.385-.3.751" transform="translate(-59.795 -27.02)" fill="#263238"/>
          <path id="Trazado_785" data-name="Trazado 785" d="M162.5,75.4a13.366,13.366,0,0,0,2.387,2.777,2.154,2.154,0,0,1-1.683.685Z" transform="translate(-59.98 -27.832)" fill="#ed847e"/>
          <path id="Trazado_786" data-name="Trazado 786" d="M159.124,70.963a.219.219,0,0,1-.161-.368,2.178,2.178,0,0,1,1.867-.727.22.22,0,0,1-.073.433,1.74,1.74,0,0,0-1.473.591.218.218,0,0,1-.161.071" transform="translate(-58.652 -25.783)" fill="#263238"/>
          <path id="Trazado_787" data-name="Trazado 787" d="M144.881,82.573c.665,3.39,1.328,9.6-1.044,11.866,0,0,.927,3.44,7.227,3.44,6.928,0,3.311-3.44,3.311-3.44-3.781-.9-3.683-3.708-3.025-6.342Z" transform="translate(-53.091 -30.478)" fill="#ffc3bd"/>
          <path id="Trazado_788" data-name="Trazado 788" d="M141.326,100.61c-.507-.942-1.064-2.02.09-2.358,1.269-.372,9.422-1.061,11.818-.363-.736,1.309.51,2.918.51,2.918Z" transform="translate(-51.946 -36.021)" fill="#263238"/>
          <path id="Trazado_789" data-name="Trazado 789" d="M108.427,352.355a1.49,1.49,0,0,0,1.153-.063.448.448,0,0,0,.107-.51.509.509,0,0,0-.283-.322c-.626-.3-2.064.287-2.125.312a.11.11,0,0,0-.006.2,5.8,5.8,0,0,0,1.154.384m.754-.741a.583.583,0,0,1,.129.043.3.3,0,0,1,.167.187c.059.2-.015.259-.038.28-.25.212-1.175.016-1.827-.245a3.616,3.616,0,0,1,1.57-.266" transform="translate(-39.572 -129.694)" fill="#407bff"/>
          <path id="Trazado_790" data-name="Trazado 790" d="M107.3,351.243a.113.113,0,0,0,.054,0c.524-.153,1.645-.949,1.658-1.475a.357.357,0,0,0-.281-.355.6.6,0,0,0-.486.039c-.62.316-1.011,1.6-1.027,1.654a.111.111,0,0,0,.027.109.109.109,0,0,0,.055.03m1.312-1.638.048.013c.136.048.134.114.133.143-.008.311-.748.936-1.29,1.189a2.644,2.644,0,0,1,.842-1.3.389.389,0,0,1,.267-.041" transform="translate(-39.572 -128.957)" fill="#407bff"/>
          <path id="Trazado_791" data-name="Trazado 791" d="M162.494,353.509c.595,0,1.17-.082,1.362-.349a.415.415,0,0,0-.009-.479.547.547,0,0,0-.348-.257c-.772-.21-2.391.714-2.46.753a.109.109,0,0,0-.054.113.112.112,0,0,0,.087.09,8.156,8.156,0,0,0,1.421.13m.735-.9a.791.791,0,0,1,.212.025.33.33,0,0,1,.215.153c.078.136.049.2.021.243-.216.3-1.387.307-2.249.185a4.962,4.962,0,0,1,1.8-.606" transform="translate(-59.42 -130.069)" fill="#407bff"/>
          <path id="Trazado_792" data-name="Trazado 792" d="M161.093,352.731a.112.112,0,0,0,.045-.009c.559-.251,1.667-1.254,1.583-1.778-.02-.122-.107-.276-.409-.307a.8.8,0,0,0-.609.189,3.132,3.132,0,0,0-.72,1.785.111.111,0,0,0,.045.1.113.113,0,0,0,.064.02m1.131-1.879c.021,0,.044,0,.066,0,.2.02.209.1.214.124.05.314-.7,1.1-1.273,1.445a2.58,2.58,0,0,1,.612-1.43.583.583,0,0,1,.381-.143" transform="translate(-59.42 -129.42)" fill="#407bff"/>
          <path id="Trazado_793" data-name="Trazado 793" d="M153.079,347.505h4.635l.462-10.733h-4.635Z" transform="translate(-56.502 -124.304)" fill="#ffc3bd"/>
          <path id="Trazado_794" data-name="Trazado 794" d="M99.16,344.535l4.53.981,4.548-10-4.53-.981Z" transform="translate(-36.6 -123.479)" fill="#ffc3bd"/>
          <path id="Trazado_795" data-name="Trazado 795" d="M102.718,350.567l-5.089-1.1a.4.4,0,0,0-.453.226l-1.767,3.833a.681.681,0,0,0,.489.949c1.783.354,2.669.437,4.907.922,1.377.3,4.485,1.055,6.386,1.467,1.86.4,2.557-1.415,1.816-1.754-3.325-1.519-4.715-2.857-5.614-4.1a1.126,1.126,0,0,0-.675-.438" transform="translate(-35.193 -128.986)" fill="#263238"/>
          <path id="Trazado_796" data-name="Trazado 796" d="M156.64,352.934h-5.062a.4.4,0,0,0-.394.317l-.915,4.12a.674.674,0,0,0,.667.824c1.826-.031,4.464-.138,6.759-.138,2.683,0,5,.146,8.147.146,1.9,0,2.431-1.924,1.634-2.1-3.626-.793-6.586-.878-9.719-2.81a2.151,2.151,0,0,0-1.117-.361" transform="translate(-55.459 -130.27)" fill="#263238"/>
          <path id="Trazado_797" data-name="Trazado 797" d="M126.047,102.968c-4.344,1-7.926,12.085-7.926,12.085l8.723,6.648a19.035,19.035,0,0,0,4.627-8.566c1.493-5.812-.983-11.186-5.424-10.168" transform="translate(-43.599 -37.96)" fill="#407bff"/>
          <g id="Grupo_974" data-name="Grupo 974" transform="translate(74.522 64.883)" opacity="0.2">
            <g id="Grupo_973" data-name="Grupo 973">
              <g id="Grupo_972" data-name="Grupo 972" clip-path="url(#clip-path-17)">
                <path id="Trazado_798" data-name="Trazado 798" d="M126.047,102.968c-4.344,1-7.926,12.085-7.926,12.085l8.723,6.648a19.035,19.035,0,0,0,4.627-8.566c1.493-5.812-.983-11.186-5.424-10.168" transform="translate(-118.121 -102.843)" fill="#fafafa"/>
              </g>
            </g>
          </g>
          <g id="Grupo_977" data-name="Grupo 977" transform="translate(82.859 73.163)" opacity="0.2">
            <g id="Grupo_976" data-name="Grupo 976">
              <g id="Grupo_975" data-name="Grupo 975" clip-path="url(#clip-path-18)">
                <path id="Trazado_799" data-name="Trazado 799" d="M134.647,115.967c-2.36,2.335-3.13,6.587-3.312,10.284l.384.3a19.059,19.059,0,0,0,4.631-8.568c.088-.347.163-.694.227-1.035Z" transform="translate(-131.335 -115.967)"/>
              </g>
            </g>
          </g>
          <path id="Trazado_800" data-name="Trazado 800" d="M156.649,102.577s4.933,5.572.274,40.06h-24.79c-.171-3.8,2.22-22.368-1.45-40.3a64.757,64.757,0,0,1,8.3-1.048,90.966,90.966,0,0,1,10.538,0,46.522,46.522,0,0,1,7.129,1.286" transform="translate(-48.236 -37.329)" fill="#407bff"/>
          <g id="Grupo_980" data-name="Grupo 980" transform="translate(82.448 63.806)" opacity="0.2">
            <g id="Grupo_979" data-name="Grupo 979">
              <g id="Grupo_978" data-name="Grupo 978" clip-path="url(#clip-path-19)">
                <path id="Trazado_801" data-name="Trazado 801" d="M156.649,102.577s4.933,5.572.274,40.06h-24.79c-.171-3.8,2.22-22.368-1.45-40.3a64.757,64.757,0,0,1,8.3-1.048,90.966,90.966,0,0,1,10.538,0,46.522,46.522,0,0,1,7.129,1.286" transform="translate(-130.684 -101.135)" fill="#fafafa"/>
              </g>
            </g>
          </g>
          <g id="Grupo_983" data-name="Grupo 983" transform="translate(104.833 75.706)" opacity="0.2">
            <g id="Grupo_982" data-name="Grupo 982">
              <g id="Grupo_981" data-name="Grupo 981" clip-path="url(#clip-path-20)">
                <path id="Trazado_802" data-name="Trazado 802" d="M171.913,120.08l-.1-.082-5.633,1.35c-.322,3.811,3.6,8.366,5.614,10.448a108.028,108.028,0,0,0,.114-11.716" transform="translate(-166.165 -119.998)"/>
              </g>
            </g>
          </g>
          <g id="Grupo_986" data-name="Grupo 986" transform="translate(96.798 212.471)" opacity="0.2">
            <g id="Grupo_985" data-name="Grupo 985">
              <g id="Grupo_984" data-name="Grupo 984" clip-path="url(#clip-path-21)">
                <path id="Trazado_803" data-name="Trazado 803" d="M158.3,336.777l-.237,5.532h-4.636l.237-5.532Z" transform="translate(-153.43 -336.777)"/>
              </g>
            </g>
          </g>
          <g id="Grupo_989" data-name="Grupo 989" transform="translate(64.759 211.061)" opacity="0.2">
            <g id="Grupo_988" data-name="Grupo 988">
              <g id="Grupo_987" data-name="Grupo 987" clip-path="url(#clip-path-22)">
                <path id="Trazado_804" data-name="Trazado 804" d="M104.992,334.542l4.532.981-2.346,5.153-4.532-.981Z" transform="translate(-102.646 -334.542)"/>
              </g>
            </g>
          </g>
          <path id="Trazado_805" data-name="Trazado 805" d="M142.284,72.447c1.191,4.443,1.662,7.1,4.4,8.952,4.124,2.778,9.259-.411,9.42-5.12.144-4.239-1.827-10.793-6.6-11.688a6.274,6.274,0,0,0-7.228,7.856" transform="translate(-52.435 -23.798)" fill="#ffc3bd"/>
          <path id="Trazado_806" data-name="Trazado 806" d="M141.378,77.532c1.889,1.081,8.776-2.532,7.362-8.008,0,0,2.624-3.155,2.327-6.637s-2.686-4.809-5.228-4.062c-2.241.659-2.176,1.886-2.176,1.886s-10.591,1.247-8.331,5.553c-4.312,4.7,3.688,9.92,6.046,11.268" transform="translate(-49.489 -21.638)" fill="#263238"/>
          <path id="Trazado_807" data-name="Trazado 807" d="M134.721,70.52s-1.262-2.184-3.1-.961a4.72,4.72,0,0,1,3.1.961" transform="translate(-48.581 -25.537)" fill="#263238"/>
          <path id="Trazado_808" data-name="Trazado 808" d="M159.717,64.989s2.308-5.211-1.29-6.888a8.91,8.91,0,0,1,1.29,6.888" transform="translate(-58.476 -21.445)" fill="#263238"/>
          <path id="Trazado_809" data-name="Trazado 809" d="M154.351,76.124a5.2,5.2,0,0,0,1.871,2.766c1.206.9,2.107.014,2.021-1.351-.077-1.228-.8-3.176-2.128-3.54-1.311-.358-2.109.792-1.763,2.125" transform="translate(-56.942 -27.289)" fill="#ffc3bd"/>
          <path id="Trazado_810" data-name="Trazado 810" d="M136.945,166.917s-5.26,35.42-8.147,48.689c-3.162,14.531-20.118,62.608-20.118,62.608l-8.3-1.8s11.856-39.179,14.511-59.494c2.038-15.6,6.056-50.007,6.056-50.007Z" transform="translate(-37.052 -61.61)" fill="#263238"/>
          <path id="Trazado_811" data-name="Trazado 811" d="M110.317,337.87c.035.008-1.546,3-1.546,3l-9.335-2.021.787-2.806Z" transform="translate(-36.702 -124.035)" fill="#407bff"/>
          <g id="Grupo_992" data-name="Grupo 992" transform="translate(91.405 117.88)" opacity="0.3">
            <g id="Grupo_991" data-name="Grupo 991">
              <g id="Grupo_990" data-name="Grupo 990" clip-path="url(#clip-path-23)">
                <path id="Trazado_812" data-name="Trazado 812" d="M150.046,186.893c-6.082,1.192-5.438,23.873-4.706,35.538,1.754-8.246,4.322-24.113,6.076-35.374a2.078,2.078,0,0,0-1.369-.164" transform="translate(-144.881 -186.846)"/>
              </g>
            </g>
          </g>
          <path id="Trazado_813" data-name="Trazado 813" d="M162.741,166.917s.638,34.653.134,48.787c-.524,14.7-5.659,62.837-5.659,62.837h-7.851s-.288-47.277-.638-61.715c-.38-15.74-2.281-49.909-2.281-49.909Z" transform="translate(-54.054 -61.61)" fill="#263238"/>
          <g id="Grupo_995" data-name="Grupo 995" transform="translate(135.387 80.876)" opacity="0.4">
            <g id="Grupo_994" data-name="Grupo 994">
              <g id="Grupo_993" data-name="Grupo 993" clip-path="url(#clip-path-7)">
                <path id="Trazado_814" data-name="Trazado 814" d="M231.483,128.193H215.488l-.894,16.267,15.972.427Z" transform="translate(-214.595 -128.193)" fill="#263238"/>
              </g>
            </g>
          </g>
          <path id="Trazado_815" data-name="Trazado 815" d="M218.665,134.055l-16.019-1.977a138.743,138.743,0,0,0,2.888-16.36l16.113,1.983a138.988,138.988,0,0,1-2.982,16.354" transform="translate(-74.798 -42.712)" fill="#407bff"/>
          <path id="Trazado_816" data-name="Trazado 816" d="M159.914,338.891c.036,0-.443,3.26-.443,3.26H149.92l-.258-2.909Z" transform="translate(-55.241 -125.086)" fill="#407bff"/>
          <path id="Trazado_817" data-name="Trazado 817" d="M171.929,110.121c.712,1.11,1.525,2.356,2.336,3.508.827,1.161,1.653,2.322,2.523,3.438a47.1,47.1,0,0,0,5.522,6.163c.488.451.987.869,1.491,1.254l.379.285a1.214,1.214,0,0,0-.222-.076c-.165-.032-.245,0-.2.02a2.107,2.107,0,0,0,1.038-.238,12.078,12.078,0,0,0,1.6-.828,55.378,55.378,0,0,0,6.665-5.164l2.707,2.186a32.143,32.143,0,0,1-6.067,7.4,14.882,14.882,0,0,1-2.168,1.6,8.46,8.46,0,0,1-3.183,1.182,5.589,5.589,0,0,1-2.413-.2,5.432,5.432,0,0,1-1.226-.566l-.547-.347q-1.083-.7-2.062-1.474a45.758,45.758,0,0,1-6.8-6.821c-.989-1.223-1.947-2.46-2.835-3.744s-1.744-2.541-2.58-3.987Z" transform="translate(-61.229 -40.646)" fill="#ffc3bd"/>
          <path id="Trazado_818" data-name="Trazado 818" d="M160.954,110.323c-1.483,6.214,9.76,12.3,9.76,12.3l7.3-8.556a60.655,60.655,0,0,0-7.461-9.008c-5.109-4.9-8.474.534-9.6,5.265" transform="translate(-59.359 -38.065)" fill="#407bff"/>
          <g id="Grupo_998" data-name="Grupo 998" transform="translate(101.46 65.064)" opacity="0.2">
            <g id="Grupo_997" data-name="Grupo 997">
              <g id="Grupo_996" data-name="Grupo 996" clip-path="url(#clip-path-25)">
                <path id="Trazado_819" data-name="Trazado 819" d="M160.954,110.323c-1.483,6.214,9.76,12.3,9.76,12.3l7.3-8.556a60.655,60.655,0,0,0-7.461-9.008c-5.109-4.9-8.474.534-9.6,5.265" transform="translate(-160.819 -103.129)" fill="#fafafa"/>
              </g>
            </g>
          </g>
          <path id="Trazado_820" data-name="Trazado 820" d="M207.784,122.185l1.724-5.535,4.535,2.26s-.661,4.038-3.963,4.738Z" transform="translate(-76.694 -43.056)" fill="#ffc3bd"/>
          <path id="Trazado_821" data-name="Trazado 821" d="M212.334,114.218l4.091,1.126-1.374,2.669-4.536-2.26Z" transform="translate(-77.702 -42.159)" fill="#ffc3bd"/>
        </g>
      </g>
    </g>
  </g>
</svg>
